<svg xmlns="http://www.w3.org/2000/svg" viewBox="0 0 32 32" width="32" height="32">
  <defs>
    <linearGradient id="jarvis-logo-gold" x1="0" y1="0" x2="32" y2="32" gradientUnits="userSpaceOnUse">
      <stop offset="0" stop-color="#c2a066"/>
      <stop offset="0.5" stop-color="#a68446"/>
      <stop offset="1" stop-color="#856733"/>
    </linearGradient>
  </defs>
  <rect width="32" height="32" rx="8.5" fill="url(#jarvis-logo-gold)"/>
  <path fill="#fff" fill-rule="evenodd" d="M5.6 14.6 15.06 7.05a1.5 1.5 0 0 1 1.88 0L26.4 14.6V23.9a1.8 1.8 0 0 1-1.8 1.8H7.4a1.8 1.8 0 0 1-1.8-1.8Z M12.5 25.7V17.5a3.5 3.5 0 0 1 7 0V25.7Z M16 8.9a1.6 1.6 0 1 0 0 3.2 1.6 1.6 0 1 0 0-3.2Z"/>
</svg>
